<mxfile host="app.diagrams.net" modified="2023-05-12T07:24:24.994Z" agent="Mozilla/5.0 (Macintosh; Intel Mac OS X 10_15_7) AppleWebKit/605.1.15 (KHTML, like Gecko) Version/16.1 Safari/605.1.15" etag="D3j7cJ4TmfxhESo-bJgY" version="21.2.9" type="github">
  <diagram name="페이지-1" id="DKAUJHLRuAVupTTFu0YC">
    <mxGraphModel dx="1255" dy="855" grid="1" gridSize="10" guides="1" tooltips="1" connect="1" arrows="1" fold="1" page="1" pageScale="1" pageWidth="827" pageHeight="1169" math="0" shadow="0">
      <root>
        <mxCell id="0" />
        <mxCell id="1" parent="0" />
        <mxCell id="LPy_eJqyMSWilxqbTp3O-1" value="이용자" style="shape=umlActor;verticalLabelPosition=bottom;verticalAlign=top;html=1;" vertex="1" parent="1">
          <mxGeometry x="40" y="240" width="30" height="60" as="geometry" />
        </mxCell>
        <mxCell id="LPy_eJqyMSWilxqbTp3O-2" value="게시판 서비스" style="shape=umlFrame;whiteSpace=wrap;html=1;pointerEvents=0;width=100;height=20;" vertex="1" parent="1">
          <mxGeometry x="130" y="20" width="570" height="520" as="geometry" />
        </mxCell>
        <mxCell id="LPy_eJqyMSWilxqbTp3O-16" style="rounded=0;orthogonalLoop=1;jettySize=auto;html=1;entryX=1;entryY=0.3333333333333333;entryDx=0;entryDy=0;entryPerimeter=0;endArrow=none;endFill=0;exitX=0;exitY=0.5;exitDx=0;exitDy=0;" edge="1" parent="1" source="LPy_eJqyMSWilxqbTp3O-3" target="LPy_eJqyMSWilxqbTp3O-1">
          <mxGeometry relative="1" as="geometry" />
        </mxCell>
        <mxCell id="LPy_eJqyMSWilxqbTp3O-3" value="회원 가입" style="rounded=1;whiteSpace=wrap;html=1;arcSize=40;fontColor=#000000;fillColor=#ffffc0;strokeColor=#ff0000;" vertex="1" parent="1">
          <mxGeometry x="180" y="190" width="120" height="40" as="geometry" />
        </mxCell>
        <mxCell id="LPy_eJqyMSWilxqbTp3O-18" style="rounded=0;orthogonalLoop=1;jettySize=auto;html=1;entryX=1;entryY=0.3333333333333333;entryDx=0;entryDy=0;entryPerimeter=0;endArrow=none;endFill=0;exitX=0;exitY=0.5;exitDx=0;exitDy=0;" edge="1" parent="1" source="LPy_eJqyMSWilxqbTp3O-5" target="LPy_eJqyMSWilxqbTp3O-1">
          <mxGeometry relative="1" as="geometry" />
        </mxCell>
        <mxCell id="LPy_eJqyMSWilxqbTp3O-25" style="rounded=0;orthogonalLoop=1;jettySize=auto;html=1;entryX=0.5;entryY=1;entryDx=0;entryDy=0;dashed=1;endArrow=classic;endFill=1;" edge="1" parent="1" target="LPy_eJqyMSWilxqbTp3O-7">
          <mxGeometry relative="1" as="geometry">
            <mxPoint x="300" y="270" as="sourcePoint" />
          </mxGeometry>
        </mxCell>
        <mxCell id="LPy_eJqyMSWilxqbTp3O-5" value="게시판 보기" style="rounded=1;whiteSpace=wrap;html=1;arcSize=40;fontColor=#000000;fillColor=#ffffc0;strokeColor=#ff0000;" vertex="1" parent="1">
          <mxGeometry x="180" y="260" width="120" height="40" as="geometry" />
        </mxCell>
        <mxCell id="LPy_eJqyMSWilxqbTp3O-19" style="rounded=0;orthogonalLoop=1;jettySize=auto;html=1;entryX=1;entryY=0.3333333333333333;entryDx=0;entryDy=0;entryPerimeter=0;endArrow=none;endFill=0;exitX=0;exitY=0.5;exitDx=0;exitDy=0;" edge="1" parent="1" source="LPy_eJqyMSWilxqbTp3O-6" target="LPy_eJqyMSWilxqbTp3O-1">
          <mxGeometry relative="1" as="geometry" />
        </mxCell>
        <mxCell id="LPy_eJqyMSWilxqbTp3O-26" style="rounded=0;orthogonalLoop=1;jettySize=auto;html=1;entryX=0.5;entryY=1;entryDx=0;entryDy=0;endArrow=classic;endFill=1;dashed=1;exitX=0.888;exitY=0.048;exitDx=0;exitDy=0;exitPerimeter=0;" edge="1" parent="1" source="LPy_eJqyMSWilxqbTp3O-6" target="LPy_eJqyMSWilxqbTp3O-7">
          <mxGeometry relative="1" as="geometry" />
        </mxCell>
        <mxCell id="LPy_eJqyMSWilxqbTp3O-6" value="게시글 보기" style="rounded=1;whiteSpace=wrap;html=1;arcSize=40;fontColor=#000000;fillColor=#ffffc0;strokeColor=#ff0000;" vertex="1" parent="1">
          <mxGeometry x="180" y="420" width="120" height="40" as="geometry" />
        </mxCell>
        <mxCell id="LPy_eJqyMSWilxqbTp3O-17" style="rounded=0;orthogonalLoop=1;jettySize=auto;html=1;entryX=1;entryY=0.3333333333333333;entryDx=0;entryDy=0;entryPerimeter=0;endArrow=none;endFill=0;exitX=0;exitY=0.5;exitDx=0;exitDy=0;" edge="1" parent="1" source="LPy_eJqyMSWilxqbTp3O-7" target="LPy_eJqyMSWilxqbTp3O-1">
          <mxGeometry relative="1" as="geometry" />
        </mxCell>
        <mxCell id="LPy_eJqyMSWilxqbTp3O-22" style="edgeStyle=orthogonalEdgeStyle;rounded=0;orthogonalLoop=1;jettySize=auto;html=1;exitX=1;exitY=0.5;exitDx=0;exitDy=0;entryX=0;entryY=0.5;entryDx=0;entryDy=0;dashed=1;" edge="1" parent="1" source="LPy_eJqyMSWilxqbTp3O-7" target="LPy_eJqyMSWilxqbTp3O-9">
          <mxGeometry relative="1" as="geometry" />
        </mxCell>
        <mxCell id="LPy_eJqyMSWilxqbTp3O-23" value="&amp;lt;&amp;lt;include&amp;gt;&amp;gt;" style="edgeLabel;html=1;align=center;verticalAlign=middle;resizable=0;points=[];" vertex="1" connectable="0" parent="LPy_eJqyMSWilxqbTp3O-22">
          <mxGeometry x="-0.1058" y="3" relative="1" as="geometry">
            <mxPoint as="offset" />
          </mxGeometry>
        </mxCell>
        <mxCell id="LPy_eJqyMSWilxqbTp3O-7" value="회원 로그인" style="rounded=1;whiteSpace=wrap;html=1;arcSize=40;fontColor=#000000;fillColor=#ffffc0;strokeColor=#ff0000;" vertex="1" parent="1">
          <mxGeometry x="260" y="60" width="120" height="40" as="geometry" />
        </mxCell>
        <mxCell id="LPy_eJqyMSWilxqbTp3O-20" style="rounded=0;orthogonalLoop=1;jettySize=auto;html=1;entryX=0;entryY=0.5;entryDx=0;entryDy=0;endArrow=classic;endFill=1;dashed=1;" edge="1" parent="1" source="LPy_eJqyMSWilxqbTp3O-9" target="LPy_eJqyMSWilxqbTp3O-9">
          <mxGeometry relative="1" as="geometry" />
        </mxCell>
        <mxCell id="LPy_eJqyMSWilxqbTp3O-9" value="인증" style="rounded=1;whiteSpace=wrap;html=1;arcSize=40;fontColor=#000000;fillColor=#ffffc0;strokeColor=#ff0000;" vertex="1" parent="1">
          <mxGeometry x="490" y="60" width="120" height="40" as="geometry" />
        </mxCell>
        <mxCell id="LPy_eJqyMSWilxqbTp3O-21" value="&amp;lt;&amp;lt;extend&amp;gt;&amp;gt;" style="rounded=0;orthogonalLoop=1;jettySize=auto;html=1;endArrow=classic;endFill=1;exitX=0;exitY=0.5;exitDx=0;exitDy=0;dashed=1;entryX=1;entryY=0.5;entryDx=0;entryDy=0;" edge="1" parent="1" source="LPy_eJqyMSWilxqbTp3O-11" target="LPy_eJqyMSWilxqbTp3O-7">
          <mxGeometry relative="1" as="geometry">
            <mxPoint x="360" y="80" as="targetPoint" />
          </mxGeometry>
        </mxCell>
        <mxCell id="LPy_eJqyMSWilxqbTp3O-11" value="로그인 실패" style="rounded=1;whiteSpace=wrap;html=1;arcSize=40;fontColor=#000000;fillColor=#ffffc0;strokeColor=#ff0000;" vertex="1" parent="1">
          <mxGeometry x="490" y="130" width="120" height="40" as="geometry" />
        </mxCell>
        <mxCell id="LPy_eJqyMSWilxqbTp3O-28" style="rounded=0;orthogonalLoop=1;jettySize=auto;html=1;exitX=0;exitY=0.5;exitDx=0;exitDy=0;entryX=1;entryY=0.5;entryDx=0;entryDy=0;dashed=1;endArrow=classic;endFill=1;" edge="1" parent="1" source="LPy_eJqyMSWilxqbTp3O-12" target="LPy_eJqyMSWilxqbTp3O-5">
          <mxGeometry relative="1" as="geometry" />
        </mxCell>
        <mxCell id="LPy_eJqyMSWilxqbTp3O-12" value="게시판 정렬하기" style="rounded=1;whiteSpace=wrap;html=1;arcSize=40;fontColor=#000000;fillColor=#ffffc0;strokeColor=#ff0000;" vertex="1" parent="1">
          <mxGeometry x="380" y="220" width="120" height="40" as="geometry" />
        </mxCell>
        <mxCell id="LPy_eJqyMSWilxqbTp3O-29" style="rounded=0;orthogonalLoop=1;jettySize=auto;html=1;exitX=0;exitY=0.5;exitDx=0;exitDy=0;entryX=1;entryY=0.5;entryDx=0;entryDy=0;dashed=1;endArrow=classic;endFill=1;" edge="1" parent="1" source="LPy_eJqyMSWilxqbTp3O-13" target="LPy_eJqyMSWilxqbTp3O-5">
          <mxGeometry relative="1" as="geometry" />
        </mxCell>
        <mxCell id="LPy_eJqyMSWilxqbTp3O-13" value="게시판 검색" style="rounded=1;whiteSpace=wrap;html=1;arcSize=40;fontColor=#000000;fillColor=#ffffc0;strokeColor=#ff0000;" vertex="1" parent="1">
          <mxGeometry x="380" y="300" width="120" height="40" as="geometry" />
        </mxCell>
        <mxCell id="LPy_eJqyMSWilxqbTp3O-30" style="rounded=0;orthogonalLoop=1;jettySize=auto;html=1;entryX=1;entryY=0.5;entryDx=0;entryDy=0;dashed=1;endArrow=classic;endFill=1;" edge="1" parent="1" source="LPy_eJqyMSWilxqbTp3O-14" target="LPy_eJqyMSWilxqbTp3O-6">
          <mxGeometry relative="1" as="geometry" />
        </mxCell>
        <mxCell id="LPy_eJqyMSWilxqbTp3O-14" value="게시글 쓰기, 수정, 삭제" style="rounded=1;whiteSpace=wrap;html=1;arcSize=40;fontColor=#000000;fillColor=#ffffc0;strokeColor=#ff0000;" vertex="1" parent="1">
          <mxGeometry x="380" y="390" width="120" height="40" as="geometry" />
        </mxCell>
        <mxCell id="LPy_eJqyMSWilxqbTp3O-31" style="rounded=0;orthogonalLoop=1;jettySize=auto;html=1;entryX=1;entryY=0.5;entryDx=0;entryDy=0;dashed=1;endArrow=classic;endFill=1;" edge="1" parent="1" source="LPy_eJqyMSWilxqbTp3O-15" target="LPy_eJqyMSWilxqbTp3O-6">
          <mxGeometry relative="1" as="geometry" />
        </mxCell>
        <mxCell id="LPy_eJqyMSWilxqbTp3O-15" value="댓글 보기, 쓰기, 수정, &lt;br&gt;삭제" style="rounded=1;whiteSpace=wrap;html=1;arcSize=50;fontColor=#000000;fillColor=#ffffc0;strokeColor=#ff0000;" vertex="1" parent="1">
          <mxGeometry x="380" y="450" width="120" height="40" as="geometry" />
        </mxCell>
      </root>
    </mxGraphModel>
  </diagram>
</mxfile>
